<svg id="authortie" width="178" height="40" viewBox="0 0 178 40" fill="none" xmlns="http://www.w3.org/2000/svg">
<path d="M7.60156 9.03125H2.83594L1.76562 12H0.21875L4.5625 0.625H5.875L10.2266 12H8.6875L7.60156 9.03125ZM3.28906 7.79688H7.15625L5.21875 2.47656L3.28906 7.79688ZM16.6562 11.1641C16.0938 11.8255 15.2682 12.1562 14.1797 12.1562C13.2786 12.1562 12.5911 11.8958 12.1172 11.375C11.6484 10.849 11.4115 10.0729 11.4062 9.04688V3.54688H12.8516V9.00781C12.8516 10.2891 13.3724 10.9297 14.4141 10.9297C15.5182 10.9297 16.2526 10.5182 16.6172 9.69531V3.54688H18.0625V12H16.6875L16.6562 11.1641ZM22.2266 1.5V3.54688H23.8047V4.66406H22.2266V9.90625C22.2266 10.2448 22.2969 10.5 22.4375 10.6719C22.5781 10.8385 22.8177 10.9219 23.1562 10.9219C23.3229 10.9219 23.5521 10.8906 23.8438 10.8281V12C23.4635 12.1042 23.0938 12.1562 22.7344 12.1562C22.0885 12.1562 21.6016 11.9609 21.2734 11.5703C20.9453 11.1797 20.7812 10.625 20.7812 9.90625V4.66406H19.2422V3.54688H20.7812V1.5H22.2266ZM26.9453 4.57031C27.5859 3.78385 28.4193 3.39062 29.4453 3.39062C31.2318 3.39062 32.1328 4.39844 32.1484 6.41406V12H30.7031V6.40625C30.6979 5.79688 30.5573 5.34635 30.2812 5.05469C30.0104 4.76302 29.5859 4.61719 29.0078 4.61719C28.5391 4.61719 28.1276 4.74219 27.7734 4.99219C27.4193 5.24219 27.1432 5.57031 26.9453 5.97656V12H25.5V0H26.9453V4.57031ZM33.9297 7.69531C33.9297 6.86719 34.0911 6.1224 34.4141 5.46094C34.7422 4.79948 35.1953 4.28906 35.7734 3.92969C36.3568 3.57031 37.0208 3.39062 37.7656 3.39062C38.9167 3.39062 39.8464 3.78906 40.5547 4.58594C41.2682 5.38281 41.625 6.44271 41.625 7.76562V7.86719C41.625 8.6901 41.4661 9.42969 41.1484 10.0859C40.8359 10.737 40.3854 11.2448 39.7969 11.6094C39.2135 11.974 38.5417 12.1562 37.7812 12.1562C36.6354 12.1562 35.7057 11.7578 34.9922 10.9609C34.2839 10.1641 33.9297 9.10938 33.9297 7.79688V7.69531ZM35.3828 7.86719C35.3828 8.80469 35.599 9.55729 36.0312 10.125C36.4688 10.6927 37.0521 10.9766 37.7812 10.9766C38.5156 10.9766 39.099 10.6901 39.5312 10.1172C39.9635 9.53906 40.1797 8.73177 40.1797 7.69531C40.1797 6.76823 39.9583 6.01823 39.5156 5.44531C39.0781 4.86719 38.4948 4.57812 37.7656 4.57812C37.0521 4.57812 36.4766 4.86198 36.0391 5.42969C35.6016 5.9974 35.3828 6.8099 35.3828 7.86719ZM47.5234 4.84375C47.3047 4.80729 47.0677 4.78906 46.8125 4.78906C45.8646 4.78906 45.2214 5.19271 44.8828 6V12H43.4375V3.54688H44.8438L44.8672 4.52344C45.3411 3.76823 46.013 3.39062 46.8828 3.39062C47.1641 3.39062 47.3776 3.42708 47.5234 3.5V4.84375ZM51.2109 1.5V3.54688H52.7891V4.66406H51.2109V9.90625C51.2109 10.2448 51.2812 10.5 51.4219 10.6719C51.5625 10.8385 51.8021 10.9219 52.1406 10.9219C52.3073 10.9219 52.5365 10.8906 52.8281 10.8281V12C52.4479 12.1042 52.0781 12.1562 51.7188 12.1562C51.0729 12.1562 50.5859 11.9609 50.2578 11.5703C49.9297 11.1797 49.7656 10.625 49.7656 9.90625V4.66406H48.2266V3.54688H49.7656V1.5H51.2109ZM56.0547 12H54.6094V3.54688H56.0547V12ZM54.4922 1.30469C54.4922 1.07031 54.5625 0.872396 54.7031 0.710938C54.849 0.549479 55.0625 0.46875 55.3438 0.46875C55.625 0.46875 55.8385 0.549479 55.9844 0.710938C56.1302 0.872396 56.2031 1.07031 56.2031 1.30469C56.2031 1.53906 56.1302 1.73438 55.9844 1.89062C55.8385 2.04688 55.625 2.125 55.3438 2.125C55.0625 2.125 54.849 2.04688 54.7031 1.89062C54.5625 1.73438 54.4922 1.53906 54.4922 1.30469ZM61.8828 12.1562C60.737 12.1562 59.8047 11.7812 59.0859 11.0312C58.3672 10.276 58.0078 9.26823 58.0078 8.00781V7.74219C58.0078 6.90365 58.1667 6.15625 58.4844 5.5C58.8073 4.83854 59.2552 4.32292 59.8281 3.95312C60.4062 3.57812 61.0312 3.39062 61.7031 3.39062C62.8021 3.39062 63.6562 3.7526 64.2656 4.47656C64.875 5.20052 65.1797 6.23698 65.1797 7.58594V8.1875H59.4531C59.474 9.02083 59.7161 9.69531 60.1797 10.2109C60.6484 10.7214 61.2422 10.9766 61.9609 10.9766C62.4714 10.9766 62.9036 10.8724 63.2578 10.6641C63.612 10.4557 63.9219 10.1797 64.1875 9.83594L65.0703 10.5234C64.362 11.612 63.2995 12.1562 61.8828 12.1562ZM61.7031 4.57812C61.1198 4.57812 60.6302 4.79167 60.2344 5.21875C59.8385 5.64062 59.5938 6.23438 59.5 7H63.7344V6.89062C63.6927 6.15625 63.4948 5.58854 63.1406 5.1875C62.7865 4.78125 62.3073 4.57812 61.7031 4.57812Z" fill="white"/>
<path d="M8.74219 31.3359C8.74219 32.1328 8.51562 32.7422 8.0625 33.1641C7.61458 33.5807 6.97917 33.7891 6.15625 33.7891C5.33854 33.7891 4.68229 33.5156 4.1875 32.9688C3.69792 32.4167 3.45312 31.6667 3.45312 30.7188V29.8594C3.45312 28.9427 3.70052 28.2109 4.19531 27.6641C4.69531 27.112 5.34896 26.8359 6.15625 26.8359C6.98958 26.8359 7.63021 27.0495 8.07812 27.4766C8.52604 27.9036 8.75 28.5052 8.75 29.2812H7.60938C7.60938 28.7656 7.48438 28.3984 7.23438 28.1797C6.98958 27.9557 6.63021 27.8438 6.15625 27.8438C5.66667 27.8438 5.28125 28.0234 5 28.3828C4.71875 28.7422 4.57812 29.2422 4.57812 29.8828V30.7656C4.57812 31.3906 4.71875 31.8828 5 32.2422C5.28125 32.6016 5.66667 32.7812 6.15625 32.7812C6.63542 32.7812 6.99479 32.6719 7.23438 32.4531C7.47917 32.2344 7.60156 31.862 7.60156 31.3359H8.74219ZM1.60938 30.3047C1.60938 31.2005 1.81771 32.0312 2.23438 32.7969C2.65104 33.5573 3.21615 34.1536 3.92969 34.5859C4.64844 35.0182 5.42448 35.2344 6.25781 35.2344C7.09115 35.2344 7.86458 35.0182 8.57812 34.5859C9.29167 34.1536 9.85677 33.5573 10.2734 32.7969C10.6901 32.0312 10.8984 31.2005 10.8984 30.3047C10.8984 29.4193 10.6927 28.599 10.2812 27.8438C9.86979 27.0885 9.30469 26.4948 8.58594 26.0625C7.8724 25.625 7.09635 25.4062 6.25781 25.4062C5.42448 25.4062 4.64844 25.6224 3.92969 26.0547C3.21094 26.4818 2.64323 27.0755 2.22656 27.8359C1.8151 28.5964 1.60938 29.4193 1.60938 30.3047ZM0.710938 30.3047C0.710938 29.2526 0.953125 28.276 1.4375 27.375C1.92708 26.474 2.60156 25.7656 3.46094 25.25C4.32552 24.7292 5.25781 24.4688 6.25781 24.4688C7.25781 24.4688 8.1875 24.7292 9.04688 25.25C9.90625 25.7656 10.5781 26.474 11.0625 27.375C11.5521 28.276 11.7969 29.2526 11.7969 30.3047C11.7969 31.3307 11.5625 32.2917 11.0938 33.1875C10.625 34.0833 9.95833 34.8047 9.09375 35.3516C8.23438 35.8932 7.28906 36.1641 6.25781 36.1641C5.23177 36.1641 4.28646 35.8958 3.42188 35.3594C2.5625 34.8177 1.89583 34.099 1.42188 33.2031C0.947917 32.3073 0.710938 31.3411 0.710938 30.3047ZM17.8672 36V24.625H21.5859C22.8203 24.625 23.7474 24.8802 24.3672 25.3906C24.9922 25.901 25.3047 26.6562 25.3047 27.6562C25.3047 28.1875 25.1536 28.6589 24.8516 29.0703C24.5495 29.4766 24.138 29.7917 23.6172 30.0156C24.2318 30.1875 24.7161 30.5156 25.0703 31C25.4297 31.4792 25.6094 32.0521 25.6094 32.7188C25.6094 33.7396 25.2786 34.5417 24.6172 35.125C23.9557 35.7083 23.0208 36 21.8125 36H17.8672ZM19.3672 30.6797V34.7734H21.8438C22.5417 34.7734 23.0911 34.5938 23.4922 34.2344C23.8984 33.8698 24.1016 33.3698 24.1016 32.7344C24.1016 31.3646 23.3568 30.6797 21.8672 30.6797H19.3672ZM19.3672 29.4766H21.6328C22.2891 29.4766 22.8125 29.3125 23.2031 28.9844C23.599 28.6562 23.7969 28.2109 23.7969 27.6484C23.7969 27.0234 23.6146 26.5703 23.25 26.2891C22.8854 26.0026 22.3307 25.8594 21.5859 25.8594H19.3672V29.4766ZM31 34.9766C31.5156 34.9766 31.9661 34.8203 32.3516 34.5078C32.737 34.1953 32.9505 33.8047 32.9922 33.3359H34.3594C34.3333 33.8203 34.1667 34.2812 33.8594 34.7188C33.5521 35.1562 33.1406 35.5052 32.625 35.7656C32.1146 36.026 31.5729 36.1562 31 36.1562C29.849 36.1562 28.9323 35.7734 28.25 35.0078C27.5729 34.237 27.2344 33.1849 27.2344 31.8516V31.6094C27.2344 30.7865 27.3854 30.0547 27.6875 29.4141C27.9896 28.7734 28.4219 28.276 28.9844 27.9219C29.5521 27.5677 30.2214 27.3906 30.9922 27.3906C31.9401 27.3906 32.7266 27.6745 33.3516 28.2422C33.9818 28.8099 34.3177 29.5469 34.3594 30.4531H32.9922C32.9505 29.9062 32.7422 29.4583 32.3672 29.1094C31.9974 28.7552 31.5391 28.5781 30.9922 28.5781C30.2578 28.5781 29.6875 28.8438 29.2812 29.375C28.8802 29.901 28.6797 30.6641 28.6797 31.6641V31.9375C28.6797 32.9115 28.8802 33.6615 29.2812 34.1875C29.6823 34.7135 30.2552 34.9766 31 34.9766ZM39.4922 36.1562C38.3464 36.1562 37.4141 35.7812 36.6953 35.0312C35.9766 34.276 35.6172 33.2682 35.6172 32.0078V31.7422C35.6172 30.9036 35.776 30.1562 36.0938 29.5C36.4167 28.8385 36.8646 28.3229 37.4375 27.9531C38.0156 27.5781 38.6406 27.3906 39.3125 27.3906C40.4115 27.3906 41.2656 27.7526 41.875 28.4766C42.4844 29.2005 42.7891 30.237 42.7891 31.5859V32.1875H37.0625C37.0833 33.0208 37.3255 33.6953 37.7891 34.2109C38.2578 34.7214 38.8516 34.9766 39.5703 34.9766C40.0807 34.9766 40.513 34.8724 40.8672 34.6641C41.2214 34.4557 41.5312 34.1797 41.7969 33.8359L42.6797 34.5234C41.9714 35.612 40.9089 36.1562 39.4922 36.1562ZM39.3125 28.5781C38.7292 28.5781 38.2396 28.7917 37.8438 29.2188C37.4479 29.6406 37.2031 30.2344 37.1094 31H41.3438V30.8906C41.3021 30.1562 41.1042 29.5885 40.75 29.1875C40.3958 28.7812 39.9167 28.5781 39.3125 28.5781ZM55.3516 36H53.9062V28.7422H50.0156V36H48.5625V27.5469H55.3516V36ZM64.8125 31.8672C64.8125 33.1536 64.5182 34.1901 63.9297 34.9766C63.3411 35.763 62.5443 36.1562 61.5391 36.1562C60.513 36.1562 59.7057 35.8307 59.1172 35.1797V39.25H57.6719V27.5469H58.9922L59.0625 28.4844C59.651 27.7552 60.4688 27.3906 61.5156 27.3906C62.5312 27.3906 63.3333 27.7734 63.9219 28.5391C64.5156 29.3047 64.8125 30.3698 64.8125 31.7344V31.8672ZM63.3672 31.7031C63.3672 30.75 63.1641 29.9974 62.7578 29.4453C62.3516 28.8932 61.7943 28.6172 61.0859 28.6172C60.2109 28.6172 59.5547 29.0052 59.1172 29.7812V33.8203C59.5495 34.5911 60.2109 34.9766 61.1016 34.9766C61.7943 34.9766 62.3438 34.7031 62.75 34.1562C63.1615 33.6042 63.3672 32.7865 63.3672 31.7031ZM71.875 36C71.7917 35.8333 71.724 35.5365 71.6719 35.1094C71 35.8073 70.1979 36.1562 69.2656 36.1562C68.4323 36.1562 67.7474 35.9219 67.2109 35.4531C66.6797 34.9792 66.4141 34.3802 66.4141 33.6562C66.4141 32.776 66.7474 32.0938 67.4141 31.6094C68.0859 31.1198 69.0286 30.875 70.2422 30.875H71.6484V30.2109C71.6484 29.7057 71.4974 29.3047 71.1953 29.0078C70.8932 28.7057 70.4479 28.5547 69.8594 28.5547C69.3438 28.5547 68.9115 28.6849 68.5625 28.9453C68.2135 29.2057 68.0391 29.5208 68.0391 29.8906H66.5859C66.5859 29.4688 66.7344 29.0625 67.0312 28.6719C67.3333 28.276 67.7396 27.9635 68.25 27.7344C68.7656 27.5052 69.3307 27.3906 69.9453 27.3906C70.9193 27.3906 71.6823 27.6354 72.2344 28.125C72.7865 28.6094 73.0729 29.2786 73.0938 30.1328V34.0234C73.0938 34.7995 73.1927 35.4167 73.3906 35.875V36H71.875ZM69.4766 34.8984C69.9297 34.8984 70.3594 34.7812 70.7656 34.5469C71.1719 34.3125 71.4661 34.0078 71.6484 33.6328V31.8984H70.5156C68.7448 31.8984 67.8594 32.4167 67.8594 33.4531C67.8594 33.9062 68.0104 34.2604 68.3125 34.5156C68.6146 34.7708 69.0026 34.8984 69.4766 34.8984ZM75.4922 36V27.5469H78.7891C79.9141 27.5469 80.776 27.7448 81.375 28.1406C81.9792 28.5312 82.2812 29.1068 82.2812 29.8672C82.2812 30.2578 82.1641 30.612 81.9297 30.9297C81.6953 31.2422 81.349 31.4818 80.8906 31.6484C81.401 31.7682 81.8099 32.0026 82.1172 32.3516C82.4297 32.7005 82.5859 33.1172 82.5859 33.6016C82.5859 34.3776 82.2995 34.9714 81.7266 35.3828C81.1589 35.7943 80.3542 36 79.3125 36H75.4922ZM76.9375 32.2891V34.8359H79.3281C79.9323 34.8359 80.3828 34.724 80.6797 34.5C80.9818 34.276 81.1328 33.9609 81.1328 33.5547C81.1328 32.7109 80.513 32.2891 79.2734 32.2891H76.9375ZM76.9375 31.1328H78.8047C80.1589 31.1328 80.8359 30.737 80.8359 29.9453C80.8359 29.1536 80.1953 28.7448 78.9141 28.7188H76.9375V31.1328ZM89.7188 36C89.6354 35.8333 89.5677 35.5365 89.5156 35.1094C88.8438 35.8073 88.0417 36.1562 87.1094 36.1562C86.276 36.1562 85.5911 35.9219 85.0547 35.4531C84.5234 34.9792 84.2578 34.3802 84.2578 33.6562C84.2578 32.776 84.5911 32.0938 85.2578 31.6094C85.9297 31.1198 86.8724 30.875 88.0859 30.875H89.4922V30.2109C89.4922 29.7057 89.3411 29.3047 89.0391 29.0078C88.737 28.7057 88.2917 28.5547 87.7031 28.5547C87.1875 28.5547 86.7552 28.6849 86.4062 28.9453C86.0573 29.2057 85.8828 29.5208 85.8828 29.8906H84.4297C84.4297 29.4688 84.5781 29.0625 84.875 28.6719C85.1771 28.276 85.5833 27.9635 86.0938 27.7344C86.6094 27.5052 87.1745 27.3906 87.7891 27.3906C88.763 27.3906 89.526 27.6354 90.0781 28.125C90.6302 28.6094 90.9167 29.2786 90.9375 30.1328V34.0234C90.9375 34.7995 91.0365 35.4167 91.2344 35.875V36H89.7188ZM87.3203 34.8984C87.7734 34.8984 88.2031 34.7812 88.6094 34.5469C89.0156 34.3125 89.3099 34.0078 89.4922 33.6328V31.8984H88.3594C86.5885 31.8984 85.7031 32.4167 85.7031 33.4531C85.7031 33.9062 85.8542 34.2604 86.1562 34.5156C86.4583 34.7708 86.8464 34.8984 87.3203 34.8984ZM101.82 29.8594C101.82 29.4635 101.669 29.151 101.367 28.9219C101.065 28.6875 100.651 28.5703 100.125 28.5703C99.6146 28.5703 99.1875 28.7031 98.8438 28.9688C98.5052 29.2344 98.3359 29.5469 98.3359 29.9062H96.8984C96.8984 29.1719 97.2057 28.5703 97.8203 28.1016C98.4349 27.6328 99.2031 27.3984 100.125 27.3984C101.115 27.3984 101.885 27.612 102.438 28.0391C102.99 28.4609 103.266 29.0651 103.266 29.8516C103.266 30.2318 103.151 30.5807 102.922 30.8984C102.693 31.2161 102.367 31.4688 101.945 31.6562C102.93 31.9896 103.422 32.6458 103.422 33.625C103.422 34.401 103.122 35.0156 102.523 35.4688C101.924 35.9219 101.125 36.1484 100.125 36.1484C99.151 36.1484 98.3464 35.9115 97.7109 35.4375C97.0807 34.9583 96.7656 34.3125 96.7656 33.5H98.2031C98.2031 33.9115 98.3854 34.2656 98.75 34.5625C99.1198 34.8542 99.5781 35 100.125 35C100.677 35 101.122 34.8724 101.461 34.6172C101.799 34.362 101.969 34.0312 101.969 33.625C101.969 33.151 101.826 32.8125 101.539 32.6094C101.258 32.401 100.818 32.2969 100.219 32.2969H98.7734V31.0781H100.344C101.328 31.0521 101.82 30.6458 101.82 29.8594ZM110.516 36C110.432 35.8333 110.365 35.5365 110.312 35.1094C109.641 35.8073 108.839 36.1562 107.906 36.1562C107.073 36.1562 106.388 35.9219 105.852 35.4531C105.32 34.9792 105.055 34.3802 105.055 33.6562C105.055 32.776 105.388 32.0938 106.055 31.6094C106.727 31.1198 107.669 30.875 108.883 30.875H110.289V30.2109C110.289 29.7057 110.138 29.3047 109.836 29.0078C109.534 28.7057 109.089 28.5547 108.5 28.5547C107.984 28.5547 107.552 28.6849 107.203 28.9453C106.854 29.2057 106.68 29.5208 106.68 29.8906H105.227C105.227 29.4688 105.375 29.0625 105.672 28.6719C105.974 28.276 106.38 27.9635 106.891 27.7344C107.406 27.5052 107.971 27.3906 108.586 27.3906C109.56 27.3906 110.323 27.6354 110.875 28.125C111.427 28.6094 111.714 29.2786 111.734 30.1328V34.0234C111.734 34.7995 111.833 35.4167 112.031 35.875V36H110.516ZM108.117 34.8984C108.57 34.8984 109 34.7812 109.406 34.5469C109.812 34.3125 110.107 34.0078 110.289 33.6328V31.8984H109.156C107.385 31.8984 106.5 32.4167 106.5 33.4531C106.5 33.9062 106.651 34.2604 106.953 34.5156C107.255 34.7708 107.643 34.8984 108.117 34.8984ZM115.492 27.5469V34.8203H118.586V27.5469H120.031V34.8203H123.117V27.5469H124.57V34.8203H125.758L125.617 38.5078H124.32V36H114.039V27.5469H115.492ZM132.703 27.5469H134.148V36H132.703V29.8359L128.805 36H127.359V27.5469H128.805V33.7188L132.703 27.5469ZM137.961 27.5469V34.8203H141.055V27.5469H142.5V34.8203H145.586V27.5469H147.039V34.8203H148.227L148.086 38.5078H146.789V36H136.508V27.5469H137.961ZM153.305 36.1562C152.159 36.1562 151.227 35.7812 150.508 35.0312C149.789 34.276 149.43 33.2682 149.43 32.0078V31.7422C149.43 30.9036 149.589 30.1562 149.906 29.5C150.229 28.8385 150.677 28.3229 151.25 27.9531C151.828 27.5781 152.453 27.3906 153.125 27.3906C154.224 27.3906 155.078 27.7526 155.688 28.4766C156.297 29.2005 156.602 30.237 156.602 31.5859V32.1875H150.875C150.896 33.0208 151.138 33.6953 151.602 34.2109C152.07 34.7214 152.664 34.9766 153.383 34.9766C153.893 34.9766 154.326 34.8724 154.68 34.6641C155.034 34.4557 155.344 34.1797 155.609 33.8359L156.492 34.5234C155.784 35.612 154.721 36.1562 153.305 36.1562ZM153.125 28.5781C152.542 28.5781 152.052 28.7917 151.656 29.2188C151.26 29.6406 151.016 30.2344 150.922 31H155.156V30.8906C155.115 30.1562 154.917 29.5885 154.562 29.1875C154.208 28.7812 153.729 28.5781 153.125 28.5781ZM165.188 36H163.742V32.3906H159.859V36H158.406V27.5469H159.859V31.2109H163.742V27.5469H165.188V36ZM169.094 30.4609H171.289C172.247 30.4714 173.005 30.7214 173.562 31.2109C174.12 31.7005 174.398 32.3646 174.398 33.2031C174.398 34.0469 174.112 34.724 173.539 35.2344C172.966 35.7448 172.195 36 171.227 36H167.648V27.5469H169.094V30.4609ZM177.414 36H175.961V27.5469H177.414V36ZM169.094 31.6406V34.8203H171.242C171.784 34.8203 172.203 34.6823 172.5 34.4062C172.797 34.125 172.945 33.7422 172.945 33.2578C172.945 32.7891 172.799 32.4062 172.508 32.1094C172.221 31.8073 171.818 31.651 171.297 31.6406H169.094Z" fill="#888888"/>
</svg>
