<svg id="board" width="165" height="379" viewBox="0 0 165 379" fill="none" xmlns="http://www.w3.org/2000/svg">
<path d="M43.6747 72.3538C35.7721 74.7971 34.1916 80.8336 32.6111 84.8579C31.0306 88.8822 21.4038 150.541 21.4038 150.541L17.5244 129.844L10.6276 134.3C10.6276 134.3 12.6391 161.176 16.2312 164.482C19.8233 167.788 34.6226 170.375 40.6573 164.482C46.8357 158.589 43.6747 72.3538 43.6747 72.3538Z" fill="url(#paint0_linear_867_1666)"/>
<path d="M145.977 90.6068C145.977 90.6068 148.276 82.2707 148.564 81.4083C148.707 80.546 142.529 74.3658 141.523 71.3476C140.517 68.3293 142.96 68.0419 144.397 69.3354C145.834 70.6289 149.569 73.6472 150 73.7909C150.431 73.9346 153.449 59.8495 154.311 56.8313C155.173 53.813 157.759 55.6815 157.328 58.6997C156.897 61.7179 156.179 67.467 156.179 67.467C156.179 67.467 162.645 69.4791 163.794 72.2099C164.944 74.797 161.495 81.2646 160.92 82.8456C160.346 84.4266 158.047 85.4327 157.616 87.1574C157.041 88.8821 155.46 94.3436 155.46 94.3436L145.977 90.6068Z" fill="#8E4F3A"/>
<path d="M66.8079 181.01C66.8079 181.01 72.8425 262.072 73.1299 264.659C73.4173 267.246 77.2967 354.2 77.2967 354.2H97.4124C97.4124 354.2 97.4124 268.539 97.4124 261.353C97.4124 254.167 97.4124 179.429 97.4124 179.429L66.8079 181.01Z" fill="#20101B"/>
<path d="M36.9216 188.915L44.6805 354.056H62.4973C62.4973 354.056 65.6583 277.163 66.3767 271.558C67.0952 265.952 66.3767 189.059 66.3767 189.059H36.9216V188.915Z" fill="#20101B"/>
<path d="M66.8079 161.32V213.061L73.4173 247.986C73.4173 247.986 97.2687 250.861 115.373 235.913C115.373 235.913 104.74 195.814 105.171 184.46C105.602 173.105 103.878 72.9286 103.878 72.9286L99.2803 70.1978L90.803 67.3232L66.8079 161.32Z" fill="url(#paint1_linear_867_1666)"/>
<path d="M47.1231 71.0601C47.1231 71.0601 42.6689 72.0662 42.2378 73.6472C41.8068 75.0845 35.0536 153.702 33.0421 167.931C30.8868 182.16 28.8752 236.488 28.8752 236.488C28.8752 236.488 42.6689 248.705 62.641 247.843L66.8078 212.917V161.176L56.0315 68.3293L47.1231 71.0601Z" fill="url(#paint2_linear_867_1666)"/>
<path d="M62.6409 63.7302L56.0315 68.3294L66.8077 161.32L90.9465 67.3233L85.0556 58.4124L70.8309 74.9408L62.6409 63.7302Z" fill="url(#paint3_linear_867_1666)"/>
<path d="M85.0556 33.979C85.0556 33.979 85.3429 55.5379 85.0556 58.5561C84.7682 61.5743 70.8309 74.9408 70.8309 74.9408L62.641 63.8739C62.641 63.8739 64.7962 50.9386 63.9341 42.6025L85.0556 33.979Z" fill="#8E4F3A"/>
<path d="M63.5031 56.8313C80.1703 54.9629 83.475 42.4587 83.475 42.4587L64.0778 44.0397C64.2215 48.2078 63.9341 52.9507 63.5031 56.8313Z" fill="#7D4431"/>
<path d="M56.0315 13.2825C56.0315 13.2825 56.0315 33.1166 56.0315 42.0276C56.0315 50.7949 65.5146 53.0945 74.1356 48.7827C82.7567 44.471 83.9061 42.89 84.1935 40.0155C84.4809 36.9972 84.9119 33.979 84.9119 33.979C84.9119 33.979 90.0845 34.1227 90.803 28.0862C91.3777 22.0497 86.4924 21.6186 84.0498 25.068C84.0498 25.068 84.7682 18.4566 84.7682 13.2825C84.9119 8.10836 56.8936 6.52738 56.0315 13.2825Z" fill="#8E4F3A"/>
<path d="M56.0315 68.3293L47.123 71.0601V97.362L56.0315 99.2304L50.4278 103.542L66.8078 161.32L56.0315 68.3293Z" fill="white"/>
<path d="M62.641 63.7302L56.0315 68.3294L58.0431 85.4328L70.831 74.9408L62.641 63.7302Z" fill="url(#paint4_linear_867_1666)"/>
<path d="M70.8309 74.9409C70.8309 74.9409 82.3256 63.874 85.0555 58.5562L90.9465 67.4671L85.9176 87.3013L70.8309 74.9409Z" fill="url(#paint5_linear_867_1666)"/>
<path d="M90.9466 67.3232L99.4239 70.1978L95.1134 98.0806L85.1992 99.3741L92.2397 102.967L66.8079 161.32L90.9466 67.3232Z" fill="white"/>
<path d="M104.022 72.7849C114.08 78.2465 118.677 91.613 120.402 99.9491C122.269 108.86 127.298 128.263 127.298 128.263C129.454 129.557 145.403 79.3963 145.403 79.3963L162.645 85.289C162.645 85.289 142.241 155.715 138.506 159.308C134.77 162.901 122.557 162.326 118.39 161.176C114.223 159.883 104.884 123.376 104.884 123.376L104.022 72.7849Z" fill="url(#paint6_linear_867_1666)"/>
<path d="M1.43105 85.1453L12.782 150.828C12.9257 151.834 13.7878 152.553 14.7936 152.696L54.5939 158.158C56.1744 158.302 57.4675 157.008 57.1802 155.571L46.6913 87.8761C46.5476 86.87 45.8292 86.1514 44.8234 86.1514L3.72999 82.8457C2.29316 82.702 1.14368 83.8518 1.43105 85.1453Z" fill="url(#paint7_linear_867_1666)"/>
<path d="M0.713363 86.0075L11.9206 150.828C12.0643 151.834 12.9265 152.553 13.7886 152.696L52.8704 158.014C54.3072 158.158 55.6004 156.864 55.4567 155.427L45.1115 88.5946C44.9678 87.7323 44.2494 87.0136 43.2436 86.8699L2.72492 83.5642C1.57545 83.5642 0.425997 84.714 0.713363 86.0075Z" fill="url(#paint8_linear_867_1666)"/>
<path d="M49.9968 152.696L16.3748 148.097L6.17322 89.0259H6.31691L40.6573 91.9004L49.9968 152.696ZM16.5185 147.953L49.8531 152.553L40.5137 91.9004L6.4606 89.1696L16.5185 147.953Z" fill="white"/>
<path d="M3.29959 125.388C2.43749 119.927 1.43171 110.441 3.29959 109.866C5.16747 109.291 5.59853 114.753 6.31694 117.196C6.31694 117.196 11.0585 117.34 13.5011 116.909C15.9437 116.477 17.6679 115.471 17.6679 118.633C17.8116 121.652 16.5185 126.538 13.5011 127.832C10.4838 129.125 3.87432 129.413 3.29959 125.388Z" fill="#8E4F3A"/>
<path d="M48.4163 354.056C48.4163 354.056 48.56 356.499 48.4163 358.368C48.2726 360.236 42.9563 362.536 35.7722 363.829C28.588 365.123 18.0991 367.854 18.0991 375.615H63.2157C63.2157 375.615 62.9283 363.829 61.0604 354.056H48.4163Z" fill="url(#paint9_linear_867_1666)"/>
<path d="M63.3593 375.615H18.2427V378.921H63.3593V375.615Z" fill="url(#paint10_linear_867_1666)"/>
<path d="M48.2726 358.799C47.4105 360.668 42.3816 362.68 35.7722 363.829C28.588 365.123 18.0991 367.854 18.0991 375.615H63.2157C63.2157 375.615 63.072 367.279 61.9226 358.799H48.2726Z" fill="#20101B"/>
<path d="M80.745 354.056C80.745 354.056 81.1761 357.074 79.7392 359.805C78.3024 362.536 78.015 375.615 78.015 375.615H104.74C104.74 375.615 104.596 370.01 100.286 367.279C96.1191 364.548 93.9639 356.787 93.9639 354.2H80.745V354.056Z" fill="url(#paint11_linear_867_1666)"/>
<path d="M100.286 367.279C97.6997 365.554 95.9755 361.961 94.9697 358.943H80.1703C80.0266 359.23 79.8829 359.661 79.7392 359.949C78.3024 362.68 78.015 375.759 78.015 375.759H104.74C104.74 375.615 104.596 370.01 100.286 367.279Z" fill="#20101B"/>
<path d="M104.74 375.615H78.015V378.921H104.74V375.615Z" fill="url(#paint12_linear_867_1666)"/>
<path d="M70.8308 74.9409L63.5031 80.8337L67.2388 87.1576H71.9803L78.3024 81.1211L70.8308 74.9409Z" fill="url(#paint13_linear_867_1666)"/>
<path d="M67.2389 87.1575L63.7905 134.587L66.8079 161.32L76.1472 125.101L71.9804 87.1575H67.2389Z" fill="url(#paint14_linear_867_1666)"/>
<path d="M84.3371 29.9545C84.3371 29.9545 84.3371 23.918 81.7508 23.4869C79.1645 23.0557 78.8771 21.0435 78.8771 21.0435L77.4403 21.4747C77.4403 21.4747 77.7276 20.4686 75.285 19.0314C72.8424 17.7379 58.4741 19.1751 56.6062 17.163C54.7383 15.1508 57.1809 2.93412 61.0604 1.64059C64.9398 0.347064 73.9919 0.347062 82.4692 2.50294C82.4692 2.50294 88.7913 3.9402 89.366 11.2702C89.7971 16.0131 86.3487 26.6488 84.3371 29.9545Z" fill="#2D3133"/>
<defs>
<linearGradient id="paint0_linear_867_1666" x1="10.6947" y1="120.168" x2="44.4819" y2="120.168" gradientUnits="userSpaceOnUse">
<stop offset="0.00048077" stop-color="white"/>
<stop offset="0.9995" stop-color="#CFE6E6"/>
</linearGradient>
<linearGradient id="paint1_linear_867_1666" x1="91.1913" y1="33.2929" x2="91.1913" y2="153.61" gradientUnits="userSpaceOnUse">
<stop offset="0.00048077" stop-color="white"/>
<stop offset="0.9995" stop-color="#CFE6E6"/>
</linearGradient>
<linearGradient id="paint2_linear_867_1666" x1="28.8626" y1="158.121" x2="61.6339" y2="158.121" gradientUnits="userSpaceOnUse">
<stop offset="0.00048077" stop-color="white"/>
<stop offset="0.9995" stop-color="#CFE6E6"/>
</linearGradient>
<linearGradient id="paint3_linear_867_1666" x1="72.366" y1="60.2017" x2="85.7093" y2="170.555" gradientUnits="userSpaceOnUse">
<stop offset="0.00046074" stop-color="#60B8FF"/>
<stop offset="0.9913" stop-color="#2B7BD3"/>
</linearGradient>
<linearGradient id="paint4_linear_867_1666" x1="63.4636" y1="68.847" x2="63.4636" y2="82.1882" gradientUnits="userSpaceOnUse">
<stop offset="0.00046074" stop-color="#60B8FF"/>
<stop offset="0.9913" stop-color="#2B7BD3"/>
</linearGradient>
<linearGradient id="paint5_linear_867_1666" x1="80.898" y1="65.204" x2="80.898" y2="82.9265" gradientUnits="userSpaceOnUse">
<stop offset="0.00046074" stop-color="#60B8FF"/>
<stop offset="0.9913" stop-color="#2B7BD3"/>
</linearGradient>
<linearGradient id="paint6_linear_867_1666" x1="160.057" y1="117.51" x2="110.134" y2="117.51" gradientUnits="userSpaceOnUse">
<stop offset="0.00048077" stop-color="white"/>
<stop offset="0.9995" stop-color="#CFE6E6"/>
</linearGradient>
<linearGradient id="paint7_linear_867_1666" x1="25.7128" y1="84.3193" x2="32.3277" y2="152.18" gradientUnits="userSpaceOnUse">
<stop stop-color="#333333"/>
<stop offset="0.9995" stop-color="#1A1A1A"/>
</linearGradient>
<linearGradient id="paint8_linear_867_1666" x1="24.6139" y1="85.2411" x2="31.1454" y2="152.247" gradientUnits="userSpaceOnUse">
<stop offset="0.00825321" stop-color="#4D4D4D"/>
<stop offset="0.9995" stop-color="#333333"/>
</linearGradient>
<linearGradient id="paint9_linear_867_1666" x1="18.2194" y1="364.897" x2="63.3771" y2="364.897" gradientUnits="userSpaceOnUse">
<stop stop-color="#FFBC9B"/>
<stop offset="1" stop-color="#FFDAC3"/>
</linearGradient>
<linearGradient id="paint10_linear_867_1666" x1="18.2193" y1="377.354" x2="63.3769" y2="377.354" gradientUnits="userSpaceOnUse">
<stop offset="0.00048077" stop-color="white"/>
<stop offset="0.9995" stop-color="#CFE6E6"/>
</linearGradient>
<linearGradient id="paint11_linear_867_1666" x1="78.0795" y1="364.897" x2="104.754" y2="364.897" gradientUnits="userSpaceOnUse">
<stop stop-color="#FFBC9B"/>
<stop offset="1" stop-color="#FFDAC3"/>
</linearGradient>
<linearGradient id="paint12_linear_867_1666" x1="78.0795" y1="377.354" x2="104.754" y2="377.354" gradientUnits="userSpaceOnUse">
<stop offset="0.00048077" stop-color="white"/>
<stop offset="0.9995" stop-color="#CFE6E6"/>
</linearGradient>
<linearGradient id="paint13_linear_867_1666" x1="63.569" y1="81.0528" x2="78.3547" y2="81.0528" gradientUnits="userSpaceOnUse">
<stop offset="0.00825321" stop-color="#4D4D4D"/>
<stop offset="0.9995" stop-color="#333333"/>
</linearGradient>
<linearGradient id="paint14_linear_867_1666" x1="63.7783" y1="124.228" x2="76.1505" y2="124.228" gradientUnits="userSpaceOnUse">
<stop offset="0.00825321" stop-color="#4D4D4D"/>
<stop offset="0.9995" stop-color="#333333"/>
</linearGradient>
</defs>
</svg>
