<svg id="thewhite" width="193" height="383" viewBox="0 0 193 383" fill="none" xmlns="http://www.w3.org/2000/svg">
<g clip-path="url(#clip0_867_1634)">
<path d="M162.445 358.516L163.885 182.601L133.33 185.996L137.137 358.516C137.137 358.516 148.556 363.66 162.445 358.516Z" fill="url(#paint0_linear_867_1634)"/>
<path d="M104.833 69.4399C104.833 69.4399 79.3193 87.5458 65.7394 111.104C65.7394 111.104 39.2996 107.298 24.0736 105.446C24.0736 105.446 20.2671 120.26 21.5016 135.382C21.5016 135.382 73.2495 135.999 76.7473 134.868C80.1423 133.736 97.1173 111.927 97.1173 111.927L104.833 69.4399Z" fill="white"/>
<path d="M120.574 360.882L123.763 186.614H96.5L98.2489 357.693C98.2489 357.693 100.615 364.791 120.574 360.882Z" fill="url(#paint1_linear_867_1634)"/>
<path d="M168.103 171.903C168.618 160.381 168.103 149.476 168.824 137.851C169.647 126.124 170.264 114.293 171.293 102.565C171.704 97.6274 172.733 92.4838 172.939 87.4429C173.144 80.7561 169.544 75.4067 164.914 70.9831C160.902 67.0739 156.169 64.0905 151.54 61.2101C151.334 61.1072 151.128 61.0043 151.026 60.9014C149.174 59.7698 147.425 58.6382 145.47 57.9181C137.24 54.729 126.232 55.1405 118.516 59.4612C113.578 62.2388 110.594 66.148 105.656 68.9256C100.409 71.909 97.2201 78.4929 97.4259 84.8711C97.9403 98.8619 96.6028 111.104 97.323 124.992C97.7345 132.296 99.0719 139.291 98.3518 146.595C97.323 156.163 90.533 178.075 93.0021 187.642C94.2366 192.374 101.953 188.465 106.068 189.288C116.561 191.449 126.232 188.259 136.828 189.391C147.219 190.523 152.466 190.111 162.445 186.716C168.824 184.556 167.795 179.207 168.103 171.903Z" fill="#E6F9F9"/>
<path d="M138.063 49.6882L140.841 56.5808C140.841 56.5808 132.096 85.4884 115.121 75.5096L119.236 59.667L138.063 49.6882Z" fill="url(#paint2_linear_867_1634)"/>
<path d="M114.401 74.8923L117.59 91.3522L127.466 75.6124L121.294 75.7153L119.545 79.213V75.6124L114.401 74.8923Z" fill="url(#paint3_linear_867_1634)"/>
<path d="M117.179 86.7229L120.059 87.0315L116.561 155.031L107.508 162.027L101.541 152.357L117.179 86.7229Z" fill="url(#paint4_linear_867_1634)"/>
<path d="M119.545 79.2132L113.989 74.7896L119.133 63.062C119.133 63.062 119.75 79.0075 119.545 79.2132Z" fill="url(#paint5_linear_867_1634)"/>
<path d="M119.133 63.0619L113.989 74.7895L104.73 76.5384L119.236 59.0498L119.133 63.0619Z" fill="url(#paint6_linear_867_1634)"/>
<path d="M147.013 58.8439L131.89 81.7848L122.425 73.5549L142.281 55.0376L147.013 58.8439Z" fill="url(#paint7_linear_867_1634)"/>
<path d="M122.425 73.5549L119.545 79.213L125.409 76.0239L122.425 73.5549Z" fill="url(#paint8_linear_867_1634)"/>
<path d="M157.713 358.927C157.713 358.927 162.034 371.581 162.651 374.461C163.268 377.548 162.239 380.12 160.182 381.457C158.124 382.794 141.561 383.617 138.063 382.28C134.462 380.943 134.977 378.165 134.977 376.93C134.977 375.696 137.549 368.803 138.166 366.643C138.783 364.483 139.606 358.927 139.606 358.927H157.713Z" fill="#20101B"/>
<path d="M118.619 360.368C118.619 360.368 120.471 369.215 120.059 374.873C120.059 374.873 114.709 375.696 112.549 376.005L111.726 374.873C111.726 374.873 108.228 376.005 103.393 376.93C98.5575 377.651 79.2164 377.342 78.1876 375.49C77.0559 373.638 78.1876 370.552 78.2905 369.421C78.2905 368.289 79.7308 366.952 81.6855 366.849C83.5373 366.746 88.3726 366.232 90.4301 365.409C92.5906 364.586 98.4546 359.75 98.4546 359.75L118.619 360.368Z" fill="#20101B"/>
<path d="M4.01226 100.097C3.8065 100.097 3.8065 100.199 4.01226 100.097C3.60075 100.92 2.36621 103.697 1.95469 105.137C1.54318 106.783 1.85181 112.956 2.57196 114.705V114.808C2.67484 115.219 3.60075 115.733 4.62953 116.248C7.20149 117.585 11.831 118.922 13.58 119.128C16.049 119.334 23.1477 118.408 23.1477 118.408L24.2793 105.343C24.2793 105.343 18.9296 100.508 16.4606 99.2736C13.9915 98.1419 3.90938 95.7758 0.102879 93.6155C0.102879 93.6155 -1.13166 97.7304 4.01226 100.097Z" fill="url(#paint9_linear_867_1634)"/>
<path d="M2.46905 114.91V115.013C2.57192 115.425 3.49783 115.939 4.52661 116.453C7.09858 116.762 10.5964 117.071 11.6252 116.865C12.9626 116.453 17.0778 109.458 16.9749 108.326C16.872 107.195 13.6828 101.639 12.654 101.434C11.6252 101.125 4.21798 100.199 3.90934 100.199C3.90934 100.199 3.90934 100.199 3.90934 100.302C3.60071 101.022 2.26329 103.8 1.95465 105.24C1.44026 106.783 1.7489 113.161 2.46905 114.91Z" fill="url(#paint10_linear_867_1634)"/>
<path d="M103.496 144.126L116.15 158.426C115.43 181.058 114.298 209.349 113.269 234.038L91.9734 209.863C93.6194 184.247 94.854 162.335 94.854 161.204C94.854 160.483 94.6482 156.986 94.3396 152.151L103.496 144.126Z" fill="url(#paint11_linear_867_1634)"/>
<path opacity="0.17" d="M106.685 160.278C106.891 158.426 106.891 154.928 106.788 150.813L128.289 175.194C128.598 174.886 128.701 174.783 128.907 174.577C134.668 169.948 163.783 153.797 165.531 152.562C165.531 153.694 165.531 154.825 165.429 155.34C165.223 157.191 166.046 156.163 167.898 167.582C163.474 172.314 149.791 190.728 145.676 194.946L146.705 196.078L109.874 226.734L106.582 222.928C105.348 195.666 106.479 163.878 106.685 160.278Z" fill="#00A99D"/>
<path d="M113.989 229.923L153.186 195.152L103.907 139.497L64.8135 174.063L113.989 229.923Z" fill="url(#paint12_linear_867_1634)"/>
<path d="M82.9201 188.568L116.15 159.146L103.702 145.052L70.4718 174.474L82.9201 188.568Z" fill="white"/>
<path d="M131.582 158.735C131.582 158.735 128.084 161.306 124.586 162.747L125.615 163.878C125.615 163.878 116.973 171.388 115.635 172.623C114.195 174.063 112.652 177.561 112.549 178.692C112.343 179.824 115.841 184.247 117.899 185.276C119.956 186.305 122.528 187.539 122.528 187.539C122.528 187.539 130.861 183.116 132.61 181.367C134.359 179.618 138.783 171.8 138.783 171.8L131.582 158.735Z" fill="url(#paint13_linear_867_1634)"/>
<path opacity="0.17" d="M156.169 108.018L160.799 125.198L131.067 157.912L143.618 164.084L184.358 125.712L166.354 106.989L156.169 108.018Z" fill="#00A99D"/>
<path d="M168.412 74.4807C168.412 74.4807 169.749 76.0238 171.19 79.11C177.157 91.9693 192.074 125.506 192.794 129.107C193.617 133.633 190.942 135.588 189.605 137.542C188.165 139.6 147.939 185.482 147.939 185.482C147.939 185.482 137.24 177.252 131.684 158.529L166.046 125.609L156.067 108.018C156.17 108.429 154.215 84.2537 168.412 74.4807Z" fill="white"/>
<path d="M119.133 59.7698C127.672 62.2388 135.594 53.083 138.063 49.6882C137.549 48.3508 137.446 47.5278 137.446 47.5278L119.751 54.3175L119.133 59.7698Z" fill="#FEAA7C"/>
<path d="M139.915 38.5777C139.915 38.5777 138.886 44.7502 137.343 47.5278C135.902 50.3054 130.45 52.4657 127.981 53.3916C125.409 54.3175 120.574 55.7577 119.442 55.7577C118.31 55.7577 112.343 48.7623 110.8 45.7789C109.257 42.7956 111.006 37.6519 110.594 35.2858C110.08 32.8168 107.405 23.8667 108.125 18.0029C108.845 12.1391 112.652 6.37816 118.31 4.2178C123.969 2.05745 129.421 -0.102906 135.182 5.24654C140.944 10.4931 142.692 16.9742 143.104 21.192C143.413 25.4099 139.915 38.5777 139.915 38.5777Z" fill="url(#paint14_linear_867_1634)"/>
<path d="M136.828 29.3191C136.828 29.3191 136.828 34.6685 136.005 36.4174L135.388 35.5944L134.668 37.7547L131.479 21.192L130.964 23.661L129.421 19.0317C129.421 19.0317 124.689 16.5627 117.076 18.0029C109.36 19.6489 104.833 24.9984 104.833 24.9984C104.833 24.9984 101.541 15.6368 106.788 8.33277L104.422 8.84714C104.422 8.84714 116.047 -4.93798 131.787 1.64596C131.787 1.64596 149.174 3.90919 149.791 19.1345L148.042 17.1799C148.042 17.1799 154.215 37.1375 140.943 48.4536C140.943 48.4536 140.738 46.0875 140.429 46.2933C140.326 46.3962 138.577 47.9393 138.577 47.9393L137.343 47.1163C137.343 47.1163 138.989 38.6806 139.297 37.8576C139.606 37.1375 140.223 33.7427 140.223 33.7427L136.828 29.3191Z" fill="url(#paint15_linear_867_1634)"/>
<path d="M137.651 29.7305C137.651 29.7305 140.738 26.027 143.104 27.0558C145.573 27.9816 148.865 34.9771 140.223 37.9604L137.651 29.7305Z" fill="url(#paint16_linear_867_1634)"/>
</g>
<defs>
<linearGradient id="paint0_linear_867_1634" x1="148.714" y1="191.455" x2="151.299" y2="354.27" gradientUnits="userSpaceOnUse">
<stop offset="0.00825321" stop-color="#4D4D4D"/>
<stop offset="0.9995" stop-color="#1A1A1A"/>
</linearGradient>
<linearGradient id="paint1_linear_867_1634" x1="110.05" y1="192.213" x2="107.472" y2="346.556" gradientUnits="userSpaceOnUse">
<stop offset="0.00825321" stop-color="#4D4D4D"/>
<stop offset="0.9995" stop-color="#1A1A1A"/>
</linearGradient>
<linearGradient id="paint2_linear_867_1634" x1="115.225" y1="63.4539" x2="140.771" y2="63.744" gradientUnits="userSpaceOnUse">
<stop stop-color="#FFBC9B"/>
<stop offset="1" stop-color="#FFDAC3"/>
</linearGradient>
<linearGradient id="paint3_linear_867_1634" x1="119.355" y1="91.5441" x2="121.159" y2="74.8729" gradientUnits="userSpaceOnUse">
<stop offset="0.00046074" stop-color="#60B8FF"/>
<stop offset="0.9913" stop-color="#2B7BD3"/>
</linearGradient>
<linearGradient id="paint4_linear_867_1634" x1="93.136" y1="132.945" x2="132.804" y2="115.43" gradientUnits="userSpaceOnUse">
<stop offset="0.00046074" stop-color="#60B8FF"/>
<stop offset="0.9913" stop-color="#2B7BD3"/>
</linearGradient>
<linearGradient id="paint5_linear_867_1634" x1="116.907" y1="79.2003" x2="117.091" y2="63.037" gradientUnits="userSpaceOnUse">
<stop stop-color="#E7E6FF"/>
<stop offset="0.3393" stop-color="#C9D2F8"/>
<stop offset="0.7637" stop-color="#AABDF1"/>
<stop offset="1" stop-color="#9EB5EE"/>
</linearGradient>
<linearGradient id="paint6_linear_867_1634" x1="112.015" y1="76.5825" x2="112.215" y2="58.9172" gradientUnits="userSpaceOnUse">
<stop stop-color="#F9FBFC"/>
<stop offset="0.9973" stop-color="#CDDBFF"/>
</linearGradient>
<linearGradient id="paint7_linear_867_1634" x1="134.692" y1="81.7735" x2="134.997" y2="54.9065" gradientUnits="userSpaceOnUse">
<stop stop-color="#F9FBFC"/>
<stop offset="0.3069" stop-color="#F0F5FD"/>
<stop offset="0.8031" stop-color="#D8E3FE"/>
<stop offset="0.9973" stop-color="#CDDBFF"/>
</linearGradient>
<linearGradient id="paint8_linear_867_1634" x1="122.559" y1="79.2642" x2="122.624" y2="73.5515" gradientUnits="userSpaceOnUse">
<stop stop-color="#E7E6FF"/>
<stop offset="0.3393" stop-color="#C9D2F8"/>
<stop offset="0.7637" stop-color="#AABDF1"/>
<stop offset="1" stop-color="#9EB5EE"/>
</linearGradient>
<linearGradient id="paint9_linear_867_1634" x1="-0.608262" y1="99.7044" x2="21.5308" y2="116.008" gradientUnits="userSpaceOnUse">
<stop stop-color="#FFBC9B"/>
<stop offset="1" stop-color="#FFDAC3"/>
</linearGradient>
<linearGradient id="paint10_linear_867_1634" x1="15.4845" y1="110.652" x2="2.56484" y2="107.62" gradientUnits="userSpaceOnUse">
<stop stop-color="#FFBC9B"/>
<stop offset="1" stop-color="#FFDAC3"/>
</linearGradient>
<linearGradient id="paint11_linear_867_1634" x1="115.864" y1="189.157" x2="92.1987" y2="188.888" gradientUnits="userSpaceOnUse">
<stop stop-color="#F5F2FD"/>
<stop offset="1" stop-color="#D5D2FB"/>
</linearGradient>
<linearGradient id="paint12_linear_867_1634" x1="135.664" y1="219.58" x2="85.65" y2="154.002" gradientUnits="userSpaceOnUse">
<stop offset="0.00825321" stop-color="#4D4D4D"/>
<stop offset="0.9995" stop-color="#333333"/>
</linearGradient>
<linearGradient id="paint13_linear_867_1634" x1="123.458" y1="187.644" x2="127.009" y2="166.733" gradientUnits="userSpaceOnUse">
<stop stop-color="#FFBC9B"/>
<stop offset="1" stop-color="#FFDAC3"/>
</linearGradient>
<linearGradient id="paint14_linear_867_1634" x1="127.635" y1="51.9928" x2="125.118" y2="14.1252" gradientUnits="userSpaceOnUse">
<stop stop-color="#FFBC9B"/>
<stop offset="1" stop-color="#FFDAC3"/>
</linearGradient>
<linearGradient id="paint15_linear_867_1634" x1="140.391" y1="46.2562" x2="117.96" y2="1.97865" gradientUnits="userSpaceOnUse">
<stop offset="0.00825321" stop-color="#4D4D4D"/>
<stop offset="0.9995" stop-color="#333333"/>
</linearGradient>
<linearGradient id="paint16_linear_867_1634" x1="141.942" y1="37.1981" x2="141.691" y2="29.3911" gradientUnits="userSpaceOnUse">
<stop stop-color="#FFBC9B"/>
<stop offset="1" stop-color="#FFDAC3"/>
</linearGradient>
<clipPath id="clip0_867_1634">
<rect width="193" height="383" fill="white"/>
</clipPath>
</defs>
</svg>
